# xmcd CD database file
#
# Track frame offsets:
#	150
#	8602
#	22032
#	35795
#	51325
#	65219
#	90639
#	107913
#	128156
#	142698
#	164484
#	181656
#
# Disc length: 2467 seconds
#
# Revision: 0
# Processed by: cddbd v1.5.1PL2 Copyright (c) Steve Scherf et al.
# Submitted via: CDex 1.51
#
DISCID=a109a10c
DTITLE=Blues Brothers - Briefcase Full Of Blues
DYEAR=1978
DGENRE=Blues
TTITLE0=Opening - I Can't Turn You Loose
TTITLE1=Hey Bartender
TTITLE2=Messin' With The Kid
TTITLE3=(I Got Every Thing I Need) Almost
TTITLE4=Rubber Biscuit
TTITLE5=Shot Gun Blues
TTITLE6=Groove Me
TTITLE7=I Don't Know
TTITLE8=Soul Man
TTITLE9='B' Movie Box Car Blues
TTITLE10=Flip, Flop and Fly
TTITLE11=Closing - I Can't Turn You Loose
EXTD=YEAR: 1978
EXTT0=
EXTT1=
EXTT2=
EXTT3=
EXTT4=
EXTT5=
EXTT6=
EXTT7=
EXTT8=
EXTT9=
EXTT10=
EXTT11=
PLAYORDER=
